<svg width="208" height="118" fill="none" xmlns="http://www.w3.org/2000/svg"><path opacity=".24" fill-rule="evenodd" clip-rule="evenodd" d="M31.302 13.886c-1.193 1.68-3.55 5.557-4.91 9.83a32.688 32.688 0 0 0-1.188-1.812.708.708 0 0 0-1.181 0c-.59.832-1.466 2.201-2.365 3.89L-25 0l-7 18 3.737.467L-47 124.5h196.819c.006.132.014.21.025.229.233.429 1.464.312 1.609-.086.002-.005.003-.054.004-.143H208l-50.383-17.758c.02-.776-.01-1.608-.092-2.494-.574-6.186-4.559-12.772-6.261-15.168a.757.757 0 0 0-1.262 0c-1.47 2.07-4.594 7.262-5.831 12.625l-19.393-8.881a29.018 29.018 0 0 0-2.258-3.848.523.523 0 0 0-.872 0 24.99 24.99 0 0 0-1.189 1.87l-2.983-1.366c-.638-4.025-3.123-8.114-4.225-9.665a.523.523 0 0 0-.872 0c-.751 1.059-2.129 3.298-3.141 5.892L93.5 78.5h-35v-11l.01-.003-.01-8.997h6a6 6 0 0 1-5.916-5H55.5v26.001h-2v-2h-5v2h-2v-34a1 1 0 0 1 1-1h2.45l-12.441-9.713c.791-1.632 1.1-3.867.836-6.702-.538-5.791-4.268-11.956-5.862-14.2a.708.708 0 0 0-1.181 0zM52.512 46.5H48.5v5h5v-4.228l-.989-.772zm.988 29h-5v-2h5v2zm0-4v-2h-5v2h5zm0-4h-5v-2h5v2zm0-4v-2h-5v2h5zm0-4h-5v-2h5v2zm0-4v-2h-5v2h5z" fill="#FFEA7D"/></svg>