<?xml version="1.0" standalone="no"?>
<!DOCTYPE svg PUBLIC "-//W3C//DTD SVG 20010904//EN"
 "http://www.w3.org/TR/2001/REC-SVG-20010904/DTD/svg10.dtd">
<svg version="1.0" xmlns="http://www.w3.org/2000/svg"
 width="512.000000pt" height="512.000000pt" viewBox="0 0 512.000000 512.000000"
 preserveAspectRatio="xMidYMid meet">
<metadata>
Created by potrace 1.11, written by Peter Selinger 2001-2013
</metadata>
<g transform="translate(0.000000,512.000000) scale(0.100000,-0.100000)"
fill="#000000" stroke="none">
<path d="M325 5106 c-155 -38 -285 -174 -315 -331 -8 -44 -10 -644 -8 -2255
l3 -2195 36 -75 c47 -97 112 -162 209 -209 l75 -36 2235 0 2235 0 75 36 c97
47 162 112 209 209 l36 75 0 2235 0 2235 -36 75 c-47 97 -112 162 -209 209
l-75 36 -2210 2 c-1711 1 -2221 -1 -2260 -11z m2486 -868 c204 -55 343 -133
487 -273 143 -137 233 -285 287 -470 24 -82 45 -225 45 -305 0 -67 45 -138
108 -173 47 -26 56 -27 189 -27 167 0 219 -13 275 -67 67 -65 68 -77 68 -587
0 -268 -5 -488 -11 -541 -60 -490 -444 -874 -934 -934 -123 -15 -1407 -15
-1530 0 -236 29 -435 123 -605 286 -147 139 -241 292 -294 474 -44 154 -48
232 -44 1009 l4 725 26 96 c56 206 146 365 285 502 137 135 281 221 458 272
140 40 192 43 655 41 433 -2 435 -2 531 -28z"/>
<path d="M1805 3381 c-143 -82 -139 -292 7 -365 l52 -26 430 0 c483 0 479 0
543 73 92 105 56 270 -72 328 -37 17 -76 19 -475 19 l-435 0 -50 -29z"/>
<path d="M1812 2104 c-41 -20 -60 -38 -83 -78 -27 -45 -30 -59 -27 -117 4 -76
32 -127 95 -169 l37 -25 726 0 726 0 37 25 c21 14 50 43 65 64 24 35 27 49 27
116 0 68 -3 81 -29 118 -18 26 -47 51 -79 67 l-51 25 -696 0 -696 0 -52 -26z"/>
</g>
</svg>