<svg width="38" height="38" viewBox="0 0 38 38" fill="none" xmlns="http://www.w3.org/2000/svg">
<path d="M8 19.8429C8 18.7788 8.83309 17.9049 9.88749 17.8562C16.6367 17.5445 21.3527 17.5494 28.11 17.8583C29.1658 17.9065 30 18.781 30 19.8457V30.0546C21.8405 30.5024 16.7467 30.5395 8 30.0552V19.8429Z" stroke="#bbb" stroke-width="2"/>
<path d="M21 10C21 11.1046 20.1046 12 19 12C17.8954 12 17 11.1046 17 10C17 9.19542 17.5025 8.44388 18.1794 7.81709C18.4698 7.54825 18.7634 7.32971 19 7.17035C19.2366 7.32971 19.5302 7.54825 19.8206 7.81709C20.4975 8.44388 21 9.19542 21 10ZM19.4626 6.88654L19.4626 6.88654L19.4626 6.88654Z" stroke="#bbb" stroke-width="2"/>
<path d="M8 22.3745C9.14403 22.3745 9.53488 21.2909 11.5814 21.2909C13.6279 21.2909 14.4096 24 16.6977 24C19.7674 24 19.2558 21.02 21.814 21.02C24.3721 21.02 23.8605 22.9163 26.4186 22.6454C27.3635 22.5454 28.0967 21.868 28.4651 21.5618C29.3339 20.8398 29.2815 21.02 30 21.02" stroke="#bbb" stroke-width="2" stroke-linecap="round"/>
<rect x="18.5" y="12.5" width="1" height="5" stroke="#bbb"/>
<path d="M5 30.0443C5 29.4723 5.47249 29.0131 6.04423 29.0294C16.4617 29.325 19.2848 29.4766 31.9572 29.0367C32.5243 29.017 33 29.471 33 30.0384C33 30.5758 32.5755 31.0175 32.0386 31.0394C22.0429 31.4475 15.9522 31.6312 5.95474 31.0565C5.41866 31.0257 5 30.5812 5 30.0443Z" fill="#bbb"/>
</svg>
